<svg xmlns="http://www.w3.org/2000/svg" xmlns:xlink="http://www.w3.org/1999/xlink" width="32" height="56" viewBox="0 0 32 56">
  <defs>
    <clipPath id="clip-path">
      <path id="Ret칙ngulo_27" data-name="Ret칙ngulo 27" d="M0,0H32a0,0,0,0,1,0,0V46A10,10,0,0,1,22,56H10A10,10,0,0,1,0,46V0A0,0,0,0,1,0,0Z" transform="translate(886 -0.526)" fill="#254467" opacity="0.07"/>
    </clipPath>
  </defs>
  <g id="Grupo_de_m치scara_1" data-name="Grupo de m치scara 1" transform="translate(-886 0.526)" clip-path="url(#clip-path)">
    <g id="area_icon" transform="translate(886 10.656)">
      <g id="Grupo_15" data-name="Grupo 15" transform="translate(0)">
        <path id="Caminho_25" data-name="Caminho 25" d="M32.266,5.113V.568A.553.553,0,0,0,31.728,0h-4.3V1.136h3L17.613,14.675a2.6,2.6,0,0,0-.943-.416V1.939l2.309,2.439.76-.8L16.513.166a.517.517,0,0,0-.76,0h0L12.526,3.575l.76.8L15.6,1.939v12.32a2.6,2.6,0,0,0-.943.416L1.836,1.136h3V0H.538A.553.553,0,0,0,0,.567H0V5.113H1.076V1.939L13.892,15.478a2.909,2.909,0,0,0-.394,1H1.836l2.309-2.439-.76-.8L.158,16.641a.591.591,0,0,0,0,.8h0l3.227,3.408.76-.8L1.836,17.61H13.5a2.91,2.91,0,0,0,.394,1L1.076,32.145V28.972H0v4.545a.553.553,0,0,0,.537.568h4.3V32.949h-3L14.652,19.41a2.6,2.6,0,0,0,.943.416v12.32l-2.309-2.439-.76.8,3.227,3.408a.518.518,0,0,0,.76,0h0L19.74,30.51l-.76-.8-2.309,2.439V19.825a2.6,2.6,0,0,0,.943-.416L30.43,32.949h-3v1.136h4.3a.553.553,0,0,0,.538-.567h0V28.972H31.19v3.173L18.374,18.606a2.909,2.909,0,0,0,.394-1H30.43l-2.309,2.439.76.8,3.227-3.408a.591.591,0,0,0,0-.8h0l-3.227-3.408-.76.8,2.309,2.439H18.767a2.91,2.91,0,0,0-.394-1L31.19,1.939V5.113ZM16.133,18.747a1.707,1.707,0,1,1,1.613-1.7A1.661,1.661,0,0,1,16.133,18.747Z" transform="translate(0 0)" fill="#254467"/>
      </g>
    </g>
  </g>
</svg>
