<svg xmlns="http://www.w3.org/2000/svg" width="48.308" height="48.308" viewBox="0 0 48.308 48.308">
  <path id="area" d="M46.924,37.9a4.723,4.723,0,0,1,0,6.672l-.008.008-3.228,3.188a1.887,1.887,0,1,1-2.652-2.685l1.888-1.865H12.641a7.556,7.556,0,0,1-7.548-7.548V5.336L3.211,7.193A1.887,1.887,0,1,1,.56,4.506L3.748,1.362a4.755,4.755,0,0,1,6.653,0l3.188,3.145a1.887,1.887,0,0,1-2.651,2.687L8.867,5.15V35.665a3.778,3.778,0,0,0,3.774,3.774H43.116l-2.08-2.054A1.887,1.887,0,1,1,43.688,34.7l3.228,3.188.008.008ZM42.645,0H18.208a1.887,1.887,0,1,0,0,3.774H42.645a1.887,1.887,0,0,1,1.887,1.887V30.192a1.887,1.887,0,1,0,3.774,0V5.661A5.661,5.661,0,0,0,42.645,0ZM27.738,32.352a1.887,1.887,0,0,0,1.887-1.887v-8.4a5.187,5.187,0,0,0-8.492-4,5.181,5.181,0,0,0-5.332-.775,1.885,1.885,0,0,0-3.16,1.391V30.475a1.887,1.887,0,0,0,3.774,0V22.066a1.415,1.415,0,1,1,2.831,0v8.409a1.887,1.887,0,0,0,3.774,0V22.066a1.415,1.415,0,1,1,2.831,0v8.4A1.887,1.887,0,0,0,27.738,32.352ZM36.3,10.19h-.059a4.36,4.36,0,0,0-4.352,4.357,1.887,1.887,0,1,0,3.774,0,.589.589,0,0,1,.578-.583H36.3a.589.589,0,0,1,.577.544c-.037.138-.327.993-2.135,2.982-1.122,1.233-2.224,2.238-2.234,2.247a1.887,1.887,0,0,0,1.268,3.284h5.095a1.887,1.887,0,1,0,0-3.774h-.649c1.675-1.973,2.43-3.44,2.43-4.7A4.36,4.36,0,0,0,36.3,10.19Zm0,0" transform="translate(0.002)" fill="#254467"/>
</svg>
