<svg id="car_icon" xmlns="http://www.w3.org/2000/svg" width="40" height="30.94" viewBox="0 0 40 30.94">
  <g id="Grupo_4" data-name="Grupo 4" transform="translate(0 0)">
    <g id="Grupo_3" data-name="Grupo 3">
      <path id="Caminho_15" data-name="Caminho 15" d="M38.47,64.5l-.872-.923-3.06-8.248A3.589,3.589,0,0,0,31.2,53H9.342A3.577,3.577,0,0,0,6,55.325L2.983,63.47,1.726,64.632A4.911,4.911,0,0,0,0,68.368V80.385A3.573,3.573,0,0,0,3.573,83.94H5.829A3.573,3.573,0,0,0,9.4,80.385V78.641H30.6v1.744a3.573,3.573,0,0,0,3.573,3.556h2.256A3.573,3.573,0,0,0,40,80.385V68.051A4.956,4.956,0,0,0,38.47,64.5ZM7.607,55.906a1.849,1.849,0,0,1,1.735-1.2H31.205a1.861,1.861,0,0,1,1.735,1.2l2.667,7.179H33.615a5.862,5.862,0,0,0-11.6,0H4.94Zm24.265,7.179H23.744a4.152,4.152,0,0,1,8.128,0ZM7.692,80.385a1.859,1.859,0,0,1-1.863,1.846H3.573a1.859,1.859,0,0,1-1.863-1.846V78.145a3.471,3.471,0,0,0,1.863.5h4.12Zm30.6,0a1.859,1.859,0,0,1-1.863,1.846H34.171a1.864,1.864,0,0,1-1.863-1.846V78.641h4.12a3.471,3.471,0,0,0,1.863-.5Zm-1.863-3.453H3.573A1.844,1.844,0,0,1,1.709,75.1V68.368a3.209,3.209,0,0,1,1.137-2.444l.034-.034,1.162-1.094H36.41l.821.88c.009.017.034.026.043.043a3.221,3.221,0,0,1,1.009,2.333V75.1h.009A1.849,1.849,0,0,1,36.427,76.932Z" transform="translate(0 -53)" fill="#254467"/>
    </g>
  </g>
  <g id="Grupo_6" data-name="Grupo 6" transform="translate(4.017 15.214)">
    <g id="Grupo_5" data-name="Grupo 5">
      <path id="Caminho_16" data-name="Caminho 16" d="M54.265,231h-6.41a.857.857,0,0,0-.855.855V236.3a.857.857,0,0,0,.855.855h6.41a.857.857,0,0,0,.855-.855v-4.444A.857.857,0,0,0,54.265,231Zm-.855,4.444h-4.7v-2.735h4.7Z" transform="translate(-47 -231)" fill="#254467"/>
    </g>
  </g>
  <g id="Grupo_8" data-name="Grupo 8" transform="translate(27.863 15.214)">
    <g id="Grupo_7" data-name="Grupo 7">
      <path id="Caminho_17" data-name="Caminho 17" d="M333.265,231h-6.41a.857.857,0,0,0-.855.855V236.3a.857.857,0,0,0,.855.855h6.41a.857.857,0,0,0,.855-.855v-4.444A.857.857,0,0,0,333.265,231Zm-.855,4.444h-4.7v-2.735h4.7Z" transform="translate(-326 -231)" fill="#254467"/>
    </g>
  </g>
  <g id="Grupo_10" data-name="Grupo 10" transform="translate(15.017 18.803)">
    <g id="Grupo_9" data-name="Grupo 9">
      <path id="Caminho_18" data-name="Caminho 18" d="M184.811,273h-8.256a.855.855,0,0,0,0,1.709h8.256a.855.855,0,0,0,0-1.709Z" transform="translate(-175.7 -273)" fill="#254467"/>
    </g>
  </g>
  <g id="Grupo_12" data-name="Grupo 12" transform="translate(15.017 16.154)">
    <g id="Grupo_11" data-name="Grupo 11">
      <path id="Caminho_19" data-name="Caminho 19" d="M184.811,242h-8.256a.855.855,0,0,0,0,1.709h8.256a.855.855,0,0,0,0-1.709Z" transform="translate(-175.7 -242)" fill="#254467"/>
    </g>
  </g>
</svg>
