<svg id="toilet_icon" xmlns="http://www.w3.org/2000/svg" width="25" height="41.667" viewBox="0 0 25 41.667">
  <g id="Grupo_14" data-name="Grupo 14" transform="translate(0 0)">
    <g id="Grupo_13" data-name="Grupo 13">
      <path id="Caminho_20" data-name="Caminho 20" d="M117.528,19.444h-.694V18.056h.694a2.083,2.083,0,0,0,2.083-2.083V4.039A2.078,2.078,0,0,0,118.917,0H98.083a2.078,2.078,0,0,0-.694,4.039V15.972a2.083,2.083,0,0,0,2.083,2.083h.694v1.389h-.694A3.476,3.476,0,0,0,96,22.917a.694.694,0,0,0,.694.694,11.736,11.736,0,0,0,6.944,10.748v6.613a.694.694,0,0,0,.694.694h8.333a.694.694,0,0,0,.694-.694V34.359a11.74,11.74,0,0,0,6.944-10.748.694.694,0,0,0,.694-.694A3.476,3.476,0,0,0,117.528,19.444ZM97.389,2.083a.694.694,0,0,1,.694-.694h20.833a.694.694,0,1,1,0,1.389H98.083A.694.694,0,0,1,97.389,2.083Zm2.083,14.583a.694.694,0,0,1-.694-.694V4.167h19.444V15.972a.694.694,0,0,1-.694.694Zm15.972,1.389v1.389H101.556V18.056ZM105.028,40.278V34.9l.065.017c.069.021.139.037.208.056q.381.108.77.19c.124.026.249.048.374.069.215.038.431.069.648.094.132.016.262.033.4.044q.424.035.851.04c.053,0,.1.008.157.008s.1-.007.158-.008q.426,0,.85-.04c.133-.011.265-.028.4-.044.215-.026.429-.056.642-.093q.191-.033.381-.069c.253-.052.5-.115.749-.185.077-.022.156-.039.233-.062l.062-.017,0,5.379Zm7.375-7.01a10.452,10.452,0,0,1-5.9.568,10.069,10.069,0,0,1-1.915-.57,10.365,10.365,0,0,1-6.51-9.654h20.833A10.367,10.367,0,0,1,112.4,33.267Zm-14.9-11.045a2.087,2.087,0,0,1,1.965-1.389h18.056a2.087,2.087,0,0,1,1.965,1.389Z" transform="translate(-96 0)" fill="#254467"/>
      <path id="Caminho_21" data-name="Caminho 21" d="M143.781,57.744h-2.786a2.625,2.625,0,1,0,0,1.75h2.786a.875.875,0,0,0,0-1.75Zm-5.25,1.75a.875.875,0,1,1,.875-.875A.875.875,0,0,1,138.531,59.494Z" transform="translate(-131.531 -49.869)" fill="#254467"/>
    </g>
  </g>
</svg>
